<?xml version="1.0" encoding="UTF-8"?>
<svg version="1.1" viewBox="0 0 1600 1600" width="1280" height="1280" xmlns="http://www.w3.org/2000/svg">
<path transform="translate(463 570)" d="m0 0c0.843-0.00509 1.69-0.0102 2.55-0.0154 16.1-0.0779 31.7 0.915 47.3 5.27 2.04 0.481 4.08 0.961 6.12 1.44 4.47 1.12 8.61 2.54 12.9 4.33 4.09 1.67 8.24 3.16 12.4 4.67 3.21 1.18 6.42 2.37 9.62 3.56 1.02 0.376 2.04 0.753 3.09 1.14 7.23 2.84 14.1 6.42 21 9.98 1.03 0.527 2.05 1.05 3.11 1.6 0.966 0.506 1.93 1.01 2.93 1.53 1.31 0.683 1.31 0.683 2.64 1.38 2.13 1.28 3.53 2.61 5.26 4.36 1.7 0.804 1.7 0.804 3.44 1.62 4.95 2.37 9.08 5.67 13.4 9.02 3.02 2.26 6.1 4.32 9.27 6.36 4.81 3.16 8.97 6.65 13.2 10.6 3.18 2.85 6.51 5.45 9.89 8.05 4.98 3.84 9.46 7.82 13.8 12.4l2 1v2c0.589 0.264 1.18 0.529 1.78 0.801 2.3 1.24 3.82 2.55 5.67 4.39 0.619 0.616 1.24 1.23 1.88 1.87 0.634 0.642 1.27 1.28 1.92 1.95 0.65 0.642 1.3 1.28 1.97 1.95 0.92 0.924 0.92 0.924 1.86 1.87 0.561 0.563 1.12 1.13 1.7 1.71 1.22 1.48 1.22 1.48 1.22 3.48 0.584 0.237 1.17 0.474 1.77 0.719 2.71 1.56 4.03 3.29 5.92 5.78 3.54 4.56 7.26 8.86 11.2 13.1 1.96 2.16 3.88 4.35 5.79 6.57 2.86 3.31 5.91 6.36 9.09 9.37 1.29 1.45 1.29 1.45 1.29 3.45 0.639 0.268 1.28 0.536 1.94 0.812 2.06 1.19 2.06 1.19 3.06 4.19 1.32 0.699 2.65 1.36 4 2 1.62 1.29 3.2 2.62 4.75 4 0.799 0.701 1.6 1.4 2.42 2.12 1.83 1.88 1.83 1.88 1.83 3.88l1.68 0.711c2.9 1.61 5.03 3.64 7.45 5.91 5.09 4.73 10.4 9.09 15.9 13.4 1.54 1.25 3.08 2.5 4.62 3.75 6.32 5.06 12.8 9.89 19.3 14.7 2.01 1.5 4.01 3 6.01 4.51 6.51 4.87 13 9.31 20.1 13.3 3.21 1.89 6.22 3.96 9.26 6.11 10.7 7.52 21.9 14 33.7 19.6v2c0.652 0.0735 1.3 0.147 1.98 0.223 4.19 1.08 7.63 3.13 11.4 5.21 8.46 4.59 17.1 8.52 26 12.2 4.43 1.87 8.57 3.76 12.7 6.31 7.83 3.71 15.7 6.64 24 9.08 3.48 1.07 6.79 2.4 10.2 3.79 13.8 5.51 28 10.4 42.7 13 8.16 1.45 16.1 3.58 24.2 5.66 8.25 2.14 16.5 4.05 24.9 5.53 2.81 0.497 5.43 1.05 8.14 1.95 2.77 0.345 5.54 0.655 8.31 0.938 6.76 0.714 13.5 1.56 20.2 2.6 8.59 1.14 17.1 1.62 25.8 1.63 1.04 0.00333 2.07 0.00666 3.14 0.0101 2.18 0.00503 4.36 0.00741 6.53 0.00725 3.29 0.00218 6.57 0.0204 9.86 0.0393 11.2 0.0308 22.1-0.203 33.2-2.22 0.903-0.161 1.81-0.322 2.74-0.488 2.48-0.476 4.93-1.01 7.39-1.57 0.898-0.206 1.8-0.411 2.72-0.623 8.23-1.96 16.3-4.37 24.4-6.88 1.21-0.376 2.43-0.752 3.68-1.14 6.09-1.93 12.1-4 18-6.44 2.56-1.05 5.17-1.96 7.79-2.86 4.45-1.59 8.31-3.51 12.3-6 0.99 0.66 1.98 1.32 3 2h-2v2c-1.46 1.51-1.46 1.51-3.38 3.12l-1.9 1.63c-1.73 1.24-1.73 1.24-3.73 1.24-0.33 0.99-0.66 1.98-1 3-1.78 1.82-1.78 1.82-3.94 3.69-0.71 0.623-1.42 1.25-2.15 1.89-1.91 1.43-1.91 1.43-3.91 1.43-0.248 0.593-0.495 1.19-0.75 1.8-1.44 2.54-2.9 3.74-5.25 5.45-0.701 0.521-1.4 1.04-2.12 1.58-1.88 1.17-1.88 1.17-3.88 1.17-0.33 0.99-0.66 1.98-1 3-2.07 1.43-2.07 1.43-4.69 2.88-4.15 2.39-7.66 5.01-11.3 8.12-14.1 10-14.1 10-18 10v2c-1.52 1.13-1.52 1.13-3.66 2.36-1.18 0.681-1.18 0.681-2.38 1.38-0.852 0.481-1.7 0.961-2.58 1.46-0.872 0.497-1.74 0.994-2.64 1.51-7.13 4.03-14.3 7.78-21.7 11.3-0.813 0.391-1.63 0.781-2.46 1.18-5.4 2.59-10.8 5.17-16.2 7.72-1.92 0.907-3.84 1.82-5.75 2.74-4.96 2.33-9.83 4.13-15.1 5.61-2.52 0.76-4.9 1.68-7.33 2.68-4.44 1.82-8.92 3.38-13.5 4.86-2.84 0.933-5.66 1.89-8.48 2.87-15.7 5.41-30.9 9.27-47.4 11.3-4.95 0.61-9.74 1.45-14.6 2.58-3.5 0.748-7.03 1.11-10.6 1.46-1.2 0.12-1.2 0.12-2.43 0.242-2.71 0.263-5.42 0.512-8.14 0.758-1.51 0.14-1.51 0.14-3.06 0.282-7.64 0.691-15.3 1.26-22.9 1.72-0.868 0.0549-1.74 0.11-2.63 0.167-37.7 2.07-82.3-5.09-117-18.5-2.76-1.04-5.54-2.03-8.31-3.02-1.2-0.429-2.41-0.859-3.64-1.3-2.72-0.967-5.45-1.92-8.18-2.87-10.5-3.65-20.8-7.48-30.7-12.5-2.06-1.04-4.12-2.08-6.19-3.12l-1.79-0.905c-3.53-1.77-7.08-3.47-10.7-5.11-8.17-3.75-15.9-7.6-23.4-12.6-4.84-3.24-9.86-5.96-15-8.68-3.79-2.02-7.39-4.14-10.9-6.57v-2c-0.715-0.251-1.43-0.503-2.17-0.762-3.09-1.35-5.46-3.02-8.14-5.05-4.44-3.3-8.96-6.31-13.7-9.19-2.07-1.27-4.03-2.57-6-4v-2c-0.594-0.275-1.19-0.551-1.8-0.834-2.1-1.11-3.65-2.25-5.42-3.82-0.597-0.524-1.19-1.05-1.81-1.59-0.947-0.84-0.947-0.84-1.91-1.7-1.34-1.18-2.69-2.35-4.04-3.53-0.674-0.592-1.35-1.18-2.04-1.79-10.4-9.18-10.4-9.18-21.7-17.2-2.73-1.8-5.31-3.77-7.91-5.76-9.53-7.2-19.3-13.8-29.9-19.4-2.38-1.31-4.56-2.74-6.78-4.29-5.88-4.01-12.3-7.01-18.7-10.1-0.628-0.301-1.26-0.602-1.9-0.912-7.38-3.53-14.8-6.88-22.4-9.97-2.45-1.01-4.85-2.08-7.26-3.18-9.6-4.26-19.3-7.17-29.6-9.33-2.04-0.438-4.07-0.898-6.11-1.37-33.4-7.75-74.8-11-108 0.761-1.66 0.45-3.33 0.887-5 1.31-5.76 1.53-11.3 3.57-16.8 5.7-2.96 0.926-5.09 1.28-8.16 0.988-1.74-1.74-1.13-4-1.15-6.32 1.84e-4 -0.769 3.69e-4 -1.54 5.59e-4 -2.33-0.00368-0.811-0.00735-1.62-0.0111-2.46-0.0111-2.74-0.0149-5.48-0.0187-8.22-0.00626-1.96-0.0129-3.91-0.0199-5.87-0.0174-5.33-0.028-10.7-0.0362-16-0.00514-3.33-0.0112-6.65-0.0175-9.98-0.0191-10.4-0.0333-20.8-0.0416-31.2-0.00978-12-0.0361-24-0.0765-36.1-0.0301-9.28-0.045-18.6-0.0483-27.8-0.00236-5.55-0.0114-11.1-0.0365-16.6-0.0232-5.22-0.0276-10.4-0.0172-15.6 4.98e-4 -1.92-0.00589-3.84-0.0196-5.75-0.0176-2.61-0.0107-5.22 0.00253-7.83-0.011-0.765-0.0219-1.53-0.0332-2.32 0.063-5.13 0.063-5.13 2.44-7.52 0.686-0.353 1.37-0.706 2.08-1.07 0.579-0.339 1.16-0.678 1.75-1.03 4.7-2.36 9.47-4.23 14.4-5.95 2.08-0.761 4.13-1.6 6.16-2.49 3.76-1.59 7.51-2.89 11.4-4.1 0.692-0.217 1.38-0.434 2.1-0.657 5.02-1.53 10-2.65 15.2-3.42 1.94-0.17 1.94-0.17 2.94-1.36 13.6-2.22 27.4-2.22 41.2-2.25zm636 318v1h5v-1h-5z" fill="#FC993A"/>
<path transform="translate(758,759)" d="m0 0c2.78 1.31 5.16 2.76 7.58 4.65 1.02 0.786 1.02 0.786 2.05 1.59 1.08 0.84 1.08 0.84 2.18 1.7 1.53 1.18 3.06 2.36 4.59 3.54 0.77 0.592 1.54 1.18 2.33 1.79 8.51 6.53 16.9 12.7 26.3 18 3.21 1.89 6.22 3.96 9.26 6.11 10.7 7.52 21.9 14 33.7 19.6v2c0.652 0.0735 1.3 0.147 1.98 0.223 4.19 1.08 7.63 3.13 11.4 5.21 8.46 4.59 17.1 8.52 26 12.2 4.43 1.87 8.57 3.76 12.7 6.31 7.83 3.71 15.7 6.64 24 9.08 3.48 1.07 6.79 2.4 10.2 3.79 13.8 5.51 28 10.4 42.7 13 8.16 1.45 16.1 3.58 24.2 5.66 8.25 2.14 16.5 4.05 24.9 5.53 2.81 0.497 5.43 1.05 8.14 1.95 2.77 0.345 5.54 0.655 8.31 0.938 6.76 0.714 13.5 1.56 20.2 2.6 8.59 1.14 17.1 1.62 25.8 1.63 1.04 0.00333 2.07 0.00666 3.14 0.0101 2.18 0.00503 4.36 0.00741 6.53 0.00725 3.29 0.00218 6.57 0.0204 9.86 0.0393 11.2 0.0308 22.1-0.203 33.2-2.22 1.35-0.242 1.35-0.242 2.74-0.488 2.48-0.476 4.93-1.01 7.39-1.57 1.35-0.308 1.35-0.308 2.72-0.623 8.23-1.96 16.3-4.37 24.4-6.88 1.21-0.376 2.43-0.752 3.68-1.14 6.09-1.93 12.1-4 18-6.44 2.56-1.05 5.17-1.96 7.79-2.86 4.45-1.59 8.31-3.51 12.3-6 0.99 0.66 1.98 1.32 3 2h-2v2c-1.46 1.51-1.46 1.51-3.38 3.12-0.626 0.539-1.25 1.08-1.9 1.63-1.73 1.24-1.73 1.24-3.73 1.24-0.33 0.99-0.66 1.98-1 3-1.78 1.82-1.78 1.82-3.94 3.69-1.07 0.934-1.07 0.934-2.15 1.89-1.91 1.43-1.91 1.43-3.91 1.43-0.371 0.889-0.371 0.889-0.75 1.8-1.44 2.54-2.9 3.74-5.25 5.45-0.701 0.521-1.4 1.04-2.12 1.58-1.88 1.17-1.88 1.17-3.88 1.17-0.33 0.99-0.66 1.98-1 3-2.07 1.43-2.07 1.43-4.69 2.88-4.15 2.39-7.66 5.01-11.3 8.12-14.1 10-14.1 10-18 10v2c-1.52 1.13-1.52 1.13-3.66 2.36-0.785 0.454-1.57 0.908-2.38 1.38-1.28 0.721-1.28 0.721-2.58 1.46-0.872 0.497-1.74 0.994-2.64 1.51-7.13 4.03-14.3 7.78-21.7 11.3-0.813 0.391-1.63 0.781-2.46 1.18-5.4 2.59-10.8 5.17-16.2 7.72-1.92 0.907-3.84 1.82-5.75 2.74-4.96 2.33-9.83 4.13-15.1 5.61-2.52 0.76-4.9 1.68-7.33 2.68-4.44 1.82-8.92 3.38-13.5 4.86-2.84 0.933-5.66 1.89-8.48 2.87-15.7 5.41-30.9 9.27-47.4 11.3-4.95 0.61-9.74 1.45-14.6 2.58-3.5 0.748-7.03 1.11-10.6 1.46-0.801 0.0798-1.6 0.16-2.43 0.242-2.71 0.263-5.42 0.512-8.14 0.758-1.01 0.0931-2.02 0.186-3.06 0.282-7.64 0.691-15.3 1.26-22.9 1.72-0.868 0.0549-1.74 0.11-2.63 0.167-37.7 2.07-82.3-5.09-117-18.5-2.76-1.04-5.54-2.03-8.31-3.02-1.2-0.429-2.41-0.859-3.64-1.3-2.72-0.967-5.45-1.92-8.18-2.87-10.5-3.65-20.8-7.48-30.7-12.5-2.06-1.04-4.12-2.08-6.19-3.12-0.888-0.448-0.888-0.448-1.79-0.905-3.53-1.77-7.08-3.47-10.7-5.11-10-4.6-19.3-9.6-28.4-15.9-0.99-0.66-1.98-1.32-3-2v-3c-0.99-0.33-1.98-0.66-3-1-0.66-0.99-1.32-1.98-2-3 1.13-0.124 2.27-0.247 3.44-0.375 1.18-0.206 2.35-0.413 3.56-0.625 0.495-0.99 0.495-0.99 1-2h9l-1-4c3.4-2.09 6.05-2.18 10-2 0.33-1.32 0.66-2.64 1-4h2-3c-0.66 0.33-1.32 0.66-2 1-0.99-2.48-0.99-2.48-2-5 0.66-0.33 1.32-0.66 2-1 0.66-0.99 1.32-1.98 2-3h4v2h2v-3c-0.66-0.33-1.32-0.66-2-1 0.144-1.38 0.29-2.75 0.438-4.12 0.0864-0.822 0.173-1.64 0.262-2.49 0.301-2.38 0.301-2.38 1.05-5.63 0.32-3.52-0.935-4.8-2.75-7.75 0.312-2.81 0.312-2.81 1-5-0.66-0.33-1.32-0.66-2-1 4.46-0.99 4.46-0.99 9-2 1.2 2.41 1.1 3.95 1.06 6.62-0.00902 0.817-0.018 1.63-0.0273 2.48-0.0116 0.626-0.0232 1.25-0.0352 1.9 3.43-0.264 3.43-0.264 7-1 0.99-1.49 0.99-1.49 2-3-0.99-0.495-0.99-0.495-2-1v-2c-0.99-0.33-1.98-0.66-3-1v-2c-1.32-0.33-2.64-0.66-4-1 0-2.84 0.403-5.24 1-8-0.99-0.33-1.98-0.66-3-1v-5c-0.99-0.495-0.99-0.495-2-1-0.33-0.99-0.66-1.98-1-3v3c-3.47 0.495-3.47 0.495-7 1 0.0928-1.36 0.0928-1.36 0.188-2.75-0.212-3.67-1.02-4.45-3.19-7.25-0.188-2.75-0.188-2.75 0-5h2v-2c3.47-0.495 3.47-0.495 7-1 0.33 0.99 0.66 1.98 1 3 0.619-0.309 1.24-0.619 1.88-0.938l4.12-2.06c-0.33-0.33-0.66-0.66-1-1-0.282-2.29-0.448-4.57-0.621-6.87-0.207-2.34-0.207-2.34-2.38-4.13-0.414-3.04-0.414-3.04-0.625-6.62-0.0748-1.19-0.15-2.38-0.227-3.6-0.049-0.915-0.098-1.83-0.148-2.77 1.32 0.33 2.64 0.66 4 1-0.33 1.32-0.66 2.64-1 4 1.98-0.66 3.96-1.32 6-2h-2v-2h-2v-11h-2c0.0412-1.07 0.0825-2.14 0.125-3.25 0.154-3.55 0.154-3.55-1.12-5.66-1.24-2.6-1.2-4.48-1.12-7.34 0.018-0.892 0.0361-1.78 0.0547-2.7 0.0232-0.675 0.0464-1.35 0.0703-2.05 1.32 0.33 2.64 0.66 4 1-0.33 0.99-0.66 1.98-1 3 3.3 0.33 6.6 0.66 10 1-0.66-0.33-1.32-0.66-2-1v-7h-2v-2c-0.66-0.33-1.32-0.66-2-1 0.33-0.66 0.66-1.32 1-2zm341 129v1h5v-1h-5z" fill="#FCA124"/>
<path transform="translate(463 570)" d="m0 0c0.843-0.00509 1.69-0.0102 2.55-0.0154 16.1-0.0779 31.7 0.912 47.3 5.27 2.1 0.503 4.21 1 6.31 1.5 4.49 1.14 8.62 2.24 12.7 4.5 1.06 2.06 1.06 2.06 1 4-0.66 0.66-1.32 1.32-2 2v3 1h-7c-0.33-0.66-0.66-1.32-1-2h-5c-0.33-0.66-0.66-1.32-1-2-0.33 0.99-0.66 1.98-1 3-0.33-0.99-0.66-1.98-1-3h-3c0.206 1.26 0.413 2.52 0.625 3.81 0.588 3.59 0.541 3.94-1.62 7.19-0.385 1.66-0.728 3.32-1 5 1.09-0.0206 2.19-0.0412 3.31-0.0625 3.69 0.0625 3.69 0.0625 6.69 1.06 0.688 2.06 0.688 2.06 1 4 0.763-0.0825 1.53-0.165 2.31-0.25 2.69 0.25 2.69 0.25 4.44 2 1.25 2.25 1.25 2.25 2.25 6.25-4.45 0.495-4.45 0.495-9 1v2c-1.32 0.33-2.64 0.66-4 1-0.33 2.64-0.66 5.28-1 8h8c0.33-0.99 0.66-1.98 1-3 0.433 0.474 0.866 0.949 1.31 1.44 1.71 1.8 1.71 1.8 4.69 2.56v6h-2c-0.206 0.804-0.413 1.61-0.625 2.44-0.454 0.846-0.908 1.69-1.38 2.56-3.12 0.812-3.12 0.812-6 1-0.33 1.65-0.66 3.3-1 5-0.99 0.33-1.98 0.66-3 1v2c3.47-0.99 3.47-0.99 7-2 0.33 0.99 0.66 1.98 1 3-0.33 0.66-0.66 1.32-1 2 1.63-0.06 3.25-0.149 4.88-0.25 0.905-0.0464 1.81-0.0928 2.74-0.141 0.786-0.201 1.57-0.402 2.38-0.609l2-4c3.3 0.33 6.6 0.66 10 1-0.33 1.32-0.66 2.64-1 4-1.32-0.33-2.64-0.66-4-1 0.99 2.31 1.98 4.62 3 7 1.11-0.186 2.23-0.371 3.38-0.562 3.62-0.438 3.62-0.438 5.62 0.562-0.33 1.32-0.66 2.64-1 4h6v4c-0.99 0.66-1.98 1.32-3 2v3c2.87 2.1 2.87 2.1 6 3v1c3.3 0.33 6.6 0.66 10 1-0.99 0.495-0.99 0.495-2 1 1.84 2.97 1.84 2.97 4 5 0.125 3.63 0.125 3.63 0 7h-2v3h-5c-0.124 0.743-0.247 1.49-0.375 2.25-0.58 2.55-1.36 4.48-2.62 6.75 1.65 0.33 3.3 0.66 5 1v2l-2 2c0.438 3.17 1.77 6.06 3 9 1.98-0.33 3.96-0.66 6-1-0.33 2.31-0.66 4.62-1 7-1.98 0.33-3.96 0.66-6 1-0.66-0.99-1.32-1.98-2-3-0.577 0.351-1.15 0.701-1.75 1.06-2.61 1.09-3.64 0.868-6.25-0.0625v-2c-2.48 0.99-2.48 0.99-5 2v5c0.33-1.32 0.66-2.64 1-4 0.99 0.33 1.98 0.66 3 1-0.33 1.32-0.66 2.64-1 4 0.66 0.33 1.32 0.66 2 1-0.33 1.65-0.66 3.3-1 5h2v2c0.99 0.33 1.98 0.66 3 1v2c0.99 0.33 1.98 0.66 3 1 2 3 2 3 2 6h2c1.26 2.91 2 4.8 2 8h2c-0.33 1.32-0.66 2.64-1 4l-2-2v7c-0.66 0.33-1.32 0.66-2 1-2-0.875-2-0.875-4-2-0.66-0.33-1.32-0.66-2-1-0.155 0.959-0.155 0.959-0.312 1.94-0.227 0.681-0.454 1.36-0.688 2.06-0.99 0.33-1.98 0.66-3 1-2-1-2-1-3-2v3h4c0.66 1.98 1.32 3.96 2 6 2.48-0.99 2.48-0.99 5-2-0.0309 1.64-0.0309 1.64-0.0625 3.31-0.123 3.63-0.123 3.63 1.06 6.69-0.784 0.578-1.57 1.15-2.38 1.75-2.43 2.08-3.48 3.34-4.62 6.25-0.33-1.32-0.66-2.64-1-4-1.28-0.165-2.56-0.33-3.88-0.5-0.719-0.0928-1.44-0.186-2.18-0.281-1.95-0.256-1.95-0.256-3.95-0.219-0.33 0.66-0.66 1.32-1 2-2.06 0.625-2.06 0.625-4 1-0.66-0.99-1.32-1.98-2-3-3.23-1.86-5.24-3-9-3-0.33 1.65-0.66 3.3-1 5-4.05 1.16-6.22 0.837-10-1 0.33 1.98 0.66 3.96 1 6-4.79-0.656-9.54-1.44-14.3-2.34-0.674-0.127-1.35-0.254-2.04-0.385-2.14-0.403-4.27-0.808-6.41-1.21-1.42-0.268-2.83-0.535-4.25-0.803-0.691-0.131-1.38-0.261-2.09-0.396-1.39-0.261-2.78-0.52-4.17-0.777-2.82-0.523-5.63-1.06-8.43-1.71-9.94-2.21-20.2-1.77-30.4-1.75-1.02-7.86e-4 -2.04-0.00157-3.1-0.00238-17.8 0.0164-35.9 0.327-52.8 6.38-1.66 0.45-3.33 0.887-5 1.31-5.76 1.53-11.3 3.57-16.8 5.7-2.96 0.926-5.09 1.28-8.16 0.988-1.74-1.74-1.13-4-1.15-6.32 1.84e-4 -0.769 3.69e-4 -1.54 5.59e-4 -2.33-0.00368-0.811-0.00735-1.62-0.0111-2.46-0.0111-2.74-0.0149-5.48-0.0187-8.22-0.00626-1.96-0.0129-3.91-0.0199-5.87-0.0174-5.33-0.028-10.7-0.0362-16-0.00514-3.33-0.0112-6.65-0.0175-9.98-0.0191-10.4-0.0333-20.8-0.0416-31.2-0.00978-12-0.0361-24-0.0765-36.1-0.0301-9.28-0.045-18.6-0.0483-27.8-0.00236-5.55-0.0114-11.1-0.0365-16.6-0.0232-5.22-0.0276-10.4-0.0172-15.6 4.98e-4 -1.92-0.00589-3.84-0.0196-5.75-0.0176-2.61-0.0107-5.22 0.00253-7.83-0.011-0.765-0.0219-1.53-0.0332-2.32 0.063-5.13 0.063-5.13 2.44-7.52 0.686-0.353 1.37-0.706 2.08-1.07 0.579-0.339 1.16-0.678 1.75-1.03 4.7-2.36 9.47-4.23 14.4-5.95 2.08-0.761 4.13-1.6 6.16-2.49 3.76-1.59 7.51-2.89 11.4-4.1 0.692-0.217 1.38-0.434 2.1-0.657 5.02-1.53 10-2.65 15.2-3.42 1.94-0.17 1.94-0.17 2.94-1.36 13.6-2.22 27.4-2.22 41.2-2.25z" fill="#FA9048"/>
<path transform="translate(768,875)" d="m0 0h5c0.66 1.32 1.32 2.64 2 4 0.99-0.66 1.98-1.32 3-2 0.934 3.01 1.04 3.87 0 7h-5c-0.33-0.99-0.66-1.98-1-3h-4v-6z" fill="#FC9939"/>
<path transform="translate(681,878)" d="m0 0h6c0.33 2.64 0.66 5.28 1 8-0.99 0.33-1.98 0.66-3 1-0.99-0.66-1.98-1.32-3-2v-2h-2c0.33-1.65 0.66-3.3 1-5z" fill="#FDA224"/>
<path transform="translate(508,772)" d="m0 0c0.268 0.598 0.536 1.2 0.812 1.81 1.17 2.16 2.38 3.55 4.19 5.19-4.75 3-4.75 3-7 3-0.66-1.65-1.32-3.3-2-5h2v-2c-0.99-0.33-1.98-0.66-3-1 1.65-0.66 3.3-1.32 5-2z" fill="#FC993B"/>
<path transform="translate(539,585)" d="m0 0c2.81 0.125 2.81 0.125 6 1 1.88 3.06 1.88 3.06 3 6l-2 1 2 2h-5v-2c-0.99 0.33-1.98 0.66-3 1v-5c0.66-0.33 1.32-0.66 2-1l-3-3z" fill="#FB9048"/>
<path transform="translate(490,586)" d="m0 0h12c-1.32 0.99-2.64 1.98-4 3 0.33 0.33 0.66 0.66 1 1v1h-9v-5z" fill="#FB983C"/>
<path transform="translate(562,786)" d="m0 0c4.46 0.99 4.46 0.99 9 2v2c0.66 0.33 1.32 0.66 2 1h-2c-0.33 0.66-0.66 1.32-1 2v-4c-0.66 1.65-1.32 3.3-2 5l-2-2-2 1v-2h-2v-5z" fill="#FB9048"/>
<path transform="translate(729,734)" d="m0 0c4.18 3.51 8.2 7.08 12 11h-3v2c-0.99-0.33-1.98-0.66-3-1v-2c-0.33-0.99-0.66-1.98-1-3h-2c-2.3-2.56-3-3.48-3-7z" fill="#FCA125"/>
<path transform="translate(1219 859)" d="m0 0c0.557 0.392 1.11 0.784 1.69 1.19h-2v2c-2.81 2.69-2.81 2.69-6 5-0.99-0.33-1.98-0.66-3-1 0.66-0.66 1.32-1.32 2-2v-3c4.11-3.31 4.11-3.31 7.31-2.19z" fill="#FB973D"/>
<path transform="translate(696,886)" d="m0 0c2.34 0.256 4.68 0.593 7 1 0.33 0.66 0.66 1.32 1 2-0.33 0.66-0.66 1.32-1 2h-7c-0.33-0.99-0.66-1.98-1-3 0.33-0.66 0.66-1.32 1-2z" fill="#FCA026"/>
<path transform="translate(537,688)" d="m0 0c0.99 0.33 1.98 0.66 3 1-0.33 0.66-0.66 1.32-1 2h4c0.33 1.32 0.66 2.64 1 4-1.32 0.33-2.64 0.66-4 1-0.33-0.99-0.66-1.98-1-3v2h-2c-0.934-3.01-1.04-3.87 0-7z" fill="#FC993B"/>
<path transform="translate(1229,852)" d="m0 0c0.66 0.33 1.32 0.66 2 1-1.65 1.32-3.3 2.64-5 4-0.66-0.66-1.32-1.32-2-2 2.38-1.56 2.38-1.56 5-3z" fill="#000002"/>
<path transform="translate(949,977)" d="m0 0h7v1h-7v-1z" fill="#000002"/>
<path transform="translate(1221,857)" d="m0 0c0.99 0.33 1.98 0.66 3 1-0.66 0.66-1.32 1.32-2 2-0.33-0.99-0.66-1.98-1-3z" fill="#533019"/>
<path transform="translate(900,976)" d="m0 0 4 1z" fill="#000002"/>
<path transform="translate(995,972)" d="m0 0 2 1z" fill="#000002"/>
<path transform="translate(365,795)" d="m0 0 2 1z" fill="#000002"/>
<path transform="translate(401,784)" d="m0 0 2 1z" fill="#000002"/>
</svg>
